<?xml version="1.0" encoding="UTF-8"?>
<svg id="Layer_2" data-name="Layer 2" xmlns="http://www.w3.org/2000/svg" viewBox="0 0 1015.76 951.29">
  <defs>
    <style>
      .cls-1 {
        fill: #fff;
        stroke-width: 0px;
      }
    </style>
  </defs>
  <g id="Layer_2-2" data-name="Layer 2">
    <path class="cls-1" d="M968,0c-1.11,1.75-1.97,3.73-3.35,5.23-56.98,61.63-114.02,123.21-171.04,184.82-63.13,68.2-126.24,136.42-189.35,204.63-.78.85-1.51,1.74-2.45,2.81,137.81,184.25,275.55,368.4,413.96,553.45-2.41.13-3.94.27-5.47.27-97.5.01-195,0-292.49.08-3.37,0-5.45-1.09-7.44-3.75-91.01-121.83-182.08-243.61-273.15-365.4-.79-1.06-1.63-2.09-2.76-3.52-1.17,1.03-2.31,1.88-3.26,2.9-60.07,64.9-120.13,129.81-180.19,194.72-53.05,57.33-106.1,114.66-159.22,171.93-1.32,1.43-3.51,2.91-5.3,2.91-28.83.11-57.66-.01-86.49-.09,0-.33,0-.67,0-1,1.57-1.41,3.26-2.72,4.69-4.26,27.38-29.57,54.72-59.18,82.1-88.74,93.92-101.41,187.85-202.81,281.77-304.21,8.57-9.25,17.11-18.54,25.66-27.8-1.03-1.47-1.76-2.58-2.55-3.64-50.76-67.89-101.53-135.78-152.29-203.66C161.28,213.25,83.18,108.81,5.12,4.36,4.17,3.09,3.69,1.46,3,0,103.67,0,204.33,0,305,0c.89,1.37,1.7,2.81,2.67,4.12,77.3,103.38,154.62,206.75,231.93,310.12,7.26,9.7,14.53,19.39,22.33,29.79,1.88-2.12,3.37-3.86,4.92-5.55,72.62-78.48,145.24-156.95,217.86-235.43C816.49,68.71,848.24,34.35,880,0c29.33,0,58.67,0,88,0ZM133.79,66.22c1.97,2.79,3.23,4.68,4.59,6.5,111.13,148.59,222.27,297.17,333.41,445.75,90.38,120.84,180.77,241.68,271.08,362.58,2.33,3.12,4.7,4.39,8.64,4.38,42.16-.14,84.33-.09,126.5-.09h6.14c-1.53-2.23-2.4-3.59-3.36-4.87-45.77-61.23-91.55-122.46-137.34-183.68-65.84-88.03-131.68-176.06-197.52-264.09-90.48-120.98-180.98-241.94-271.37-362.98-2.1-2.81-4.28-3.55-7.51-3.54-42.5.08-85,.05-127.5.05h-5.76Z"/>
  </g>
</svg>