<?xml version="1.0" encoding="UTF-8"?>
<svg id="Layer_2" data-name="Layer 2" xmlns="http://www.w3.org/2000/svg" viewBox="0 0 314.51 312.3">
  <defs>
    <style>
      .cls-1 {
        fill: #fff;
        stroke-width: 0px;
      }
    </style>
  </defs>
  <g id="Layer_2-2" data-name="Layer 2">
    <g id="rfBaL0">
      <path class="cls-1" d="M181.84,312.3v-109.53h36.52c2.31-15.09,4.57-29.81,6.93-45.24h-43.36c-.17-1.58-.38-2.54-.36-3.49.21-10.48-.09-21.01.85-31.43.98-10.88,7.85-17.38,18.78-18.82,5.09-.67,10.3-.52,15.45-.65,3.31-.09,6.62-.02,10.26-.02v-38.63c-5.95-.73-11.86-1.73-17.8-2.14-11.96-.82-23.93-1.58-35.78,1.44-20.99,5.34-36.57,21.79-38.89,43.31-1.53,14.18-1.08,28.58-1.49,42.88-.07,2.29,0,4.58,0,7.58-7.13,0-13.73,0-20.34,0s-12.93,0-19.63,0v45.13h39.56v109.51C65.73,303.9-1.86,240.66.04,153.47,1.81,72.19,67.61,2.2,153.18.05c87.6-2.2,157.52,66.61,161.17,149.79,3.9,89-63.52,153.25-132.5,162.46Z"/>
    </g>
  </g>
</svg>