<?xml version="1.0" encoding="UTF-8"?>
<svg id="Layer_2" data-name="Layer 2" xmlns="http://www.w3.org/2000/svg" viewBox="0 0 311.06 311.06">
  <defs>
    <style>
      .cls-1 {
        fill: #fff;
        stroke-width: 0px;
      }
    </style>
  </defs>
  <g id="Layer_2-2" data-name="Layer 2">
    <g id="_3GFrPo.tif" data-name="3GFrPo.tif">
      <g>
        <path class="cls-1" d="M277.68,311.06H33.38c-1.01-.1-2.02-.2-3.04-.3-.93-.19-1.86-.37-2.79-.55-3.65-.71-7.05-2.08-10.23-3.97-9.62-5.68-14.87-14.34-16.99-25.1-.04-.2.16-.46.25-.69-.19-1.13-.39-2.25-.58-3.38C0,196.05,0,115.02,0,33.99c.11-.61.21-1.21.32-1.82.04-.47.07-.94.11-1.41.32-1.63.56-3.28.98-4.89C4.7,13.12,16.04,1.44,32.75.26c1.06.02,2.12.05,3.18.05,79.78,0,159.56,0,239.34,0,1.11,0,2.22-.02,3.33-.04,1.87.28,3.76.46,5.6.86,14.37,3.18,25.93,15.94,26.61,31.62-.02.4-.06.81-.06,1.21,0,80.6,0,161.19,0,241.79,0,.86.04,1.71.06,2.57-.12.89-.35,1.78-.35,2.67,0,3.42-1.13,6.56-2.54,9.56-5.5,11.68-14.76,18.36-27.52,20.23-.91.1-1.83.19-2.74.29ZM123.81,267.67c.1,0,.21.02.31.03.35.03.7.09,1.05.09,13.92,0,27.85,0,41.77,0,.4,0,.8-.07,1.2-.11.1-.68.27-1.37.27-2.05.01-24.98.01-49.97,0-74.95,0-1.46-.04-2.93-.06-4.39.13-1.65.19-3.3.39-4.94.56-4.53,1.79-8.88,4.04-12.86,4.5-7.95,11.43-11.98,20.49-12.51.11-.05.23-.1.34-.15.2-.01.39-.02.59-.03,1.42,0,2.85,0,4.27,0,.41.05.82.09,1.22.14.2.02.4.04.6.06,4.04.4,7.74,1.7,11,4.16,4.1,3.1,6.52,7.35,8.1,12.14,1.47,4.46,1.83,9.1,2.25,13.74-.02.29-.03.59-.05.88-.03.35-.07.7-.07,1.06,0,26.04,0,52.08.02,78.13,0,.53.18,1.06.28,1.6.45.04.9.1,1.35.1,14.39,0,28.77,0,43.16,0,.45,0,.9-.07,1.35-.1.1-.58.27-1.16.27-1.74.02-6.22.01-12.43.01-18.65,0-25.47-.02-50.94-.03-76.42-.06-.52-.12-1.03-.18-1.55-.06-1.19-.13-2.38-.19-3.57-.05-.43-.1-.87-.15-1.3-.01-.2-.03-.39-.04-.59,0-.1-.01-.2-.02-.31-.22-1.73-.4-3.47-.68-5.19-.9-5.61-2.5-11.02-4.83-16.19-4.4-9.76-11.24-17.31-20.77-22.29-1.86-.97-3.79-1.9-5.78-2.54-2.92-.95-5.92-1.62-8.88-2.41-.11-.07-.23-.13-.34-.2,0,0,.02,0,.02,0-.61-.1-1.22-.21-1.83-.31h.01c-.71-.1-1.43-.2-2.14-.3h.01c-1-.13-2.01-.27-3.01-.4l-2.48-.18c-2.63.09-5.27.17-7.9.26-17.06,1.59-30.38,9.5-40,23.68-.11-.58-.3-1.15-.31-1.73-.02-5.3,0-10.6-.03-15.9,0-.58-.2-1.15-.31-1.73-.1-.02-.2-.05-.3-.05-14.29,0-28.58-.02-42.88,0-.36,0-.72.23-1.07.35-.01.71-.03,1.41-.03,2.12,0,48.24,0,96.48,0,144.71,0,.71-.03,1.41-.05,2.12-.02.03-.06.07-.05.1.02.07.06.13.09.2ZM74.94,43.73h-.02c-.91-.1-1.82-.19-2.73-.29-.99,0-1.98,0-2.97,0l-2.46.27c-.09-.02-.18,0-.27.03-.22.07-.45.15-.67.22-2.76.24-5.3,1.23-7.68,2.56-8.31,4.62-13.27,11.57-14.48,21.09l-.15.98v4.83c.05.32.1.65.15.97,1.17,11.77,10.9,22.35,23.42,23.91l.63.06c.35.04.7.09,1.05.13.15.02.3.03.45.05,1,0,1.99,0,2.99,0,.25-.03.5-.05.74-.08l1.07-.13c.11,0,.22-.02.33-.03.59-.09,1.18-.16,1.77-.28,12.18-2.38,21.23-12.91,21.99-25.19,0-1.23,0-2.47,0-3.7-.28-3-.85-5.94-2.01-8.72-2.7-6.45-7.18-11.29-13.49-14.33-2.3-1.1-4.66-2.16-7.31-2.14l-.35-.24ZM47.98,118.12c-.11.58-.32,1.16-.32,1.74-.01,48.69-.01,97.38,0,146.07,0,.59.18,1.17.27,1.76.45.04.9.11,1.35.11,14.49,0,28.97,0,43.46,0,.45,0,.9-.07,1.35-.11.1-.69.27-1.37.27-2.06.02-17.95.01-35.9.01-53.85,0-30.49,0-60.97-.01-91.46,0-.73-.21-1.46-.32-2.19-.45-.02-.91-.06-1.36-.06-14.45,0-28.9,0-43.35,0-.45,0-.91.04-1.36.06Z"/>
        <path class="cls-1" d="M278.59,0c0,.09.01.18.02.27-1.11.01-2.22.04-3.33.04-79.78,0-159.56,0-239.34,0-1.06,0-2.12-.03-3.18-.05,0-.09.01-.17.02-.26h245.82Z"/>
        <path class="cls-1" d="M311.06,278.29l-.12.04s-.12,0-.12,0c-.02-.86-.06-1.71-.06-2.57,0-80.6,0-161.19,0-241.79,0-.4.04-.81.06-1.21.08-.02.17,0,.25.03v245.51Z"/>
        <path class="cls-1" d="M.58,280.45c-.19-.01-.39-.03-.58-.04,0-1.11,0-2.23,0-3.34.19,1.13.39,2.25.58,3.38Z"/>
        <path class="cls-1" d="M30.65,311.06c-.1-.1-.2-.2-.3-.3,1.01.1,2.02.2,3.04.3h-2.73Z"/>
        <path class="cls-1" d="M280.42,310.77c-.02.1-.02.19,0,.29h-2.73c.91-.1,1.83-.19,2.74-.29Z"/>
        <path class="cls-1" d="M.32,32.17C.21,32.78.11,33.38,0,33.99c0-.61,0-1.21,0-1.82.11,0,.21,0,.32,0Z"/>
        <path class="cls-1" d="M.32,32.17c-.11,0-.21,0-.32,0C0,31.66,0,31.16,0,30.65c.14.04.29.07.43.11-.04.47-.07.94-.11,1.41Z"/>
        <path class="cls-1" d="M94.09,267.68c0-.76-.02-1.52-.02-2.28,0-48.29,0-96.59,0-144.88,0-.71-.02-1.42-.04-2.12,0-.09.01-.18.01-.27.11.73.32,1.46.32,2.19.02,30.49.01,60.97.01,91.46,0,17.95,0,35.9-.01,53.85,0,.69-.18,1.37-.27,2.06Z"/>
        <path class="cls-1" d="M47.99,118.39c-.01.71-.04,1.42-.04,2.12,0,48.29,0,96.59,0,144.88,0,.76-.01,1.52-.02,2.28-.1-.59-.27-1.17-.27-1.76-.01-48.69-.01-97.38,0-146.07,0-.58.21-1.16.32-1.74,0,.09,0,.18,0,.28Z"/>
        <path class="cls-1" d="M267.68,267.68c0-19.96-.01-39.92-.02-59.88,0-11.87,0-23.75,0-35.62,0-.45.04-.91.07-1.36.07.02.14.03.21.05,0,25.47.02,50.94.03,76.42,0,6.22,0,12.43-.01,18.65,0,.58-.18,1.16-.27,1.74Z"/>
        <path class="cls-1" d="M168.14,267.68c0-26.54,0-53.07,0-79.61,0-.6.14-1.19.22-1.79.02,1.46.06,2.93.06,4.39,0,24.98,0,49.97,0,74.95,0,.68-.18,1.37-.27,2.05Z"/>
        <path class="cls-1" d="M221.82,186.96c0,26.9,0,53.81.01,80.71-.1-.53-.27-1.06-.27-1.6-.02-26.04-.02-52.08-.02-78.13,0-.35.05-.7.07-1.06.07.02.14.04.21.07Z"/>
        <path class="cls-1" d="M47.99,118.39c0-.09-.01-.18,0-.28.45-.02.91-.06,1.36-.06,14.45,0,28.9,0,43.35,0,.45,0,.91.04,1.36.06,0,.09,0,.18,0,.27-6.62-.01-13.23-.04-19.85-.04-8.74,0-17.47.02-26.21.03Z"/>
        <path class="cls-1" d="M168.09,118.4c-5.61-.01-11.21-.04-16.82-.04-8.48,0-16.97,0-25.45,0-.66,0-1.31.04-1.97.06.36-.12.72-.35,1.07-.35,14.29-.01,28.58,0,42.88,0,.1,0,.2.03.3.05,0,.09,0,.18-.01.27Z"/>
        <path class="cls-1" d="M168.09,118.4c0-.09,0-.18.01-.27.11.58.31,1.15.31,1.73.02,5.3,0,10.6.03,15.9,0,.58.2,1.15.31,1.73-.09.15-.19.31-.28.46-.13-.02-.25-.03-.38-.05v-19.49Z"/>
        <path class="cls-1" d="M216.7,113.75c-2.65.02-5.3.03-7.95.05,2.63-.09,5.27-.17,7.9-.26.02.07.04.14.05.21Z"/>
        <path class="cls-1" d="M194.21,155.78c1.42,0,2.85,0,4.27,0-1.42,0-2.85,0-4.27,0Z"/>
        <path class="cls-1" d="M98.1,72.86c0-1.23,0-2.47,0-3.7,0,1.23,0,2.47,0,3.7Z"/>
        <path class="cls-1" d="M222.14,114.12c-1.13-.1-2.25-.19-3.38-.29.12-.04.24-.08.36-.11,1,.13,2.01.27,3.01.4Z"/>
        <path class="cls-1" d="M74.93,43.73c-.91-.1-1.82-.19-2.73-.29.91.1,1.82.19,2.73.29Z"/>
        <path class="cls-1" d="M219.13,113.72c-.12.04-.24.08-.36.11-.69-.03-1.38-.05-2.06-.08-.02-.07-.03-.14-.05-.21.83.06,1.65.12,2.48.18Z"/>
        <path class="cls-1" d="M69.23,43.45c-.82.09-1.64.18-2.46.27.82-.09,1.64-.18,2.46-.27Z"/>
        <path class="cls-1" d="M224.27,114.43c-.71-.1-1.43-.2-2.14-.3.71.1,1.43.2,2.14.3Z"/>
        <path class="cls-1" d="M226.09,114.73c-.61-.1-1.22-.21-1.83-.31.61.1,1.22.21,1.83.31Z"/>
        <path class="cls-1" d="M267.94,170.88c-.07-.02-.14-.04-.21-.05.01-.5.02-1,.04-1.49.06.52.12,1.03.18,1.55Z"/>
        <path class="cls-1" d="M267.57,165.76c-.05-.43-.1-.87-.15-1.3.05.43.1.87.15,1.3Z"/>
        <path class="cls-1" d="M43.52,73.43c.05.32.1.65.15.97-.05-.32-.1-.65-.15-.97Z"/>
        <path class="cls-1" d="M43.66,67.62c-.05.33-.1.65-.15.98.05-.33.1-.65.15-.98Z"/>
        <path class="cls-1" d="M221.82,186.96c-.07-.03-.14-.05-.21-.07.02-.29.03-.59.05-.88.05.32.1.63.16.95Z"/>
        <path class="cls-1" d="M72.21,98.56c.25-.03.5-.05.74-.08-.25.03-.5.05-.74.08Z"/>
        <path class="cls-1" d="M67.09,98.31c.21.02.42.04.63.06-.21-.02-.42-.04-.63-.06Z"/>
        <path class="cls-1" d="M199.71,155.91c.2.02.4.04.6.06-.2-.02-.4-.04-.6-.06Z"/>
        <path class="cls-1" d="M66.5,43.75c-.22.07-.45.15-.67.22.22-.07.45-.15.67-.22Z"/>
        <path class="cls-1" d="M74.02,98.35c.11,0,.22-.02.33-.03-.11,0-.22.02-.33.03Z"/>
        <path class="cls-1" d="M68.77,98.5c.15.02.3.03.45.05-.15-.02-.3-.03-.45-.05Z"/>
        <path class="cls-1" d="M193.29,155.97c.11-.05.23-.1.34-.15-.11.05-.23.1-.34.15Z"/>
        <path class="cls-1" d="M267.38,163.87c-.03-.07-.07-.14-.08-.21,0-.03.04-.06.06-.1,0,.1.01.2.02.31Z"/>
        <path class="cls-1" d="M75.3,43.97c-.12-.08-.24-.16-.35-.24.12.08.24.16.35.24Z"/>
        <path class="cls-1" d="M123.81,267.67c-.03-.06-.07-.13-.09-.2,0-.03.03-.06.05-.1,0,0,.12-.03.12-.03-.03.11-.05.22-.08.33Z"/>
        <path class="cls-1" d="M123.81,267.67c.03-.11.05-.22.08-.33.08.12.16.23.23.35-.1,0-.21-.02-.31-.03Z"/>
        <path class="cls-1" d="M226.42,114.93c-.11-.07-.23-.13-.34-.2.11.07.23.13.34.2Z"/>
      </g>
    </g>
  </g>
</svg>