<?xml version="1.0" encoding="UTF-8"?>
<svg id="Layer_2" data-name="Layer 2" xmlns="http://www.w3.org/2000/svg" viewBox="0 0 619.88 406.76">
  <defs>
    <style>
      .cls-1 {
        stroke-width: 0px;
      }
    </style>
  </defs>
  <g id="Layer_2-2" data-name="Layer 2">
    <g id="OUq61W">
      <g>
        <path class="cls-1" d="M58.94,101.47H.3c-.11-1.99-.27-3.45-.27-4.9-.01-19.33-.07-38.67.02-58C.15,16.52,16.61.04,38.7.03c96.16-.04,192.33-.04,288.49,0,22.11,0,38.68,16.44,38.75,38.47.11,32.83.03,65.66.03,98.5,0,1.13,0,2.26,0,3.71h-16.88v-5.29c0-31.67.01-63.33,0-95,0-15.17-8.33-23.53-23.44-23.54-83.83-.02-167.66-.02-251.49-.02-1.27,0-2.54.12-4.66.23,7.58,11.33,6.3,23.62,6.3,35.71.01,104.66.04,209.32-.05,313.99,0,9.63,3.54,16.91,12.29,21.04,7.79,3.68,15.31,2.47,22.01-2.88,5.28-4.21,7.59-9.98,7.76-16.65.06-2.47,0-4.94,0-7.7h276.82c4.64,24.05-12.29,45.25-36.83,46.03-7.66.24-15.33.07-23,.07-78.33,0-156.66,0-234.99,0-25.12,0-40.86-15.7-40.86-40.84,0-85.5,0-170.99,0-256.49,0-2.31,0-4.63,0-7.9ZM128.9,389.83c1.97,0,3.55,0,5.14,0,73.78,0,147.56,0,221.35,0,1.33,0,2.67.04,3.99-.09,8.08-.8,14.64-5.71,16.41-12.62-2.73,0-5.34,0-7.96,0-53.46-.02-106.92-.04-160.39-.05-23.15,0-46.3,0-69.45.12-1.6,0-4.03.52-4.62,1.59-1.8,3.28-2.88,6.94-4.48,11.06ZM58.82,84.39c0-16.53.51-32.52-.17-48.46-.49-11.4-10.57-19.51-21.73-19.03-11.29.48-19.91,9.63-19.98,21.42-.09,13.49-.02,26.98-.02,40.47,0,1.78,0,3.56,0,5.61h41.91Z"/>
        <path class="cls-1" d="M373.67,242.39c-.94-8.54-1.9-15.57-2.45-22.63-3.28-42.28,9.65-79.07,37.67-110.73,2.25-2.55,4.58-4.72,8.11-2.88,3.27,1.71,2.9,4.64,2.28,7.84-1.07,5.49-1.66,11.08-2.57,17.42,1.13-.9,1.63-1.11,1.83-1.48,27.19-49.15,69.2-79.49,122.06-95.91,23.34-7.25,47.37-10.7,71.73-11.98,6.5-.34,8.95,2.65,6.8,8.46-17.39,46.98-40.64,90.61-76.08,126.59-10.77,10.94-23.84,19.61-35.88,29.3-.84.67-1.8,1.19-2.7,1.78.09.42.19.84.28,1.27,5.52-.38,11.05-1.06,16.57-1.01,2.3.02,5.45,1,6.61,2.67.91,1.3.12,5.04-1.22,6.48-26.85,28.87-57.62,51.89-96.24,62.64-7.62,2.12-15.58,3.05-24.93,4.82,1.53-3.02,2.25-4.57,3.08-6.06,31.22-56.03,69.27-106.62,118.33-148.44,9.32-7.94,11.07-19.23,4.38-27.82-6.95-8.92-19.09-9.98-28.32-2.32-22.63,18.77-43.39,39.41-62.4,61.84-24.65,29.09-45.55,60.69-63.57,94.24-.82,1.54-1.72,3.03-3.36,5.9Z"/>
        <path class="cls-1" d="M355.13,314.8c.42-3.43.82-6.53,1.16-9.65,1.01-9.2,4.01-17.69,8.14-26,26.03-52.47,57.06-101.65,96.65-144.97,14.57-15.94,30.82-30.36,46.55-45.22,4.96-4.68,11.59-3.99,15.54.7,3.98,4.72,3.36,11.02-1.88,15.47-60.06,50.86-103.32,114.28-138.17,184.08-2.91,5.83-7.5,10.81-11.3,16.19-4.07,5.76-10.67,9.73-10.91,18.17-.12,4.11-4.52,4.56-8.25,4.55-22.99-.05-45.98-.01-68.97-.01-55.31,0-110.62,0-165.93-.01-1.66,0-3.34.07-4.99-.12-3.72-.43-5.68-2.75-5.76-6.36-.09-3.88,2.01-6.25,5.91-6.75,1.64-.21,3.33-.08,4.99-.08,76.97,0,153.93,0,230.9,0h6.32Z"/>
        <path class="cls-1" d="M212.56,106.83c-31.82,0-63.65,0-95.47,0-1.66,0-3.85.53-4.87-.31-2.09-1.72-4.43-3.99-5.05-6.43-.81-3.22,1.55-5.66,4.9-6.38,1.76-.38,3.64-.35,5.46-.35,63.31-.02,126.63-.02,189.94-.02.5,0,1,0,1.5,0,5.96.11,9.13,2.58,8.97,6.98-.16,4.15-3.32,6.52-8.91,6.52-32.16.02-64.31,0-96.47,0Z"/>
        <path class="cls-1" d="M212.53,239.71c-31.66,0-63.32,0-94.98,0-1.5,0-3.03.15-4.49-.1-3.7-.64-6.08-2.7-6.09-6.69,0-4.01,2.41-6.03,6.09-6.7,1.29-.24,2.66-.11,3.99-.11,63.48,0,126.97,0,190.45,0,1.5,0,3.03-.13,4.48.16,3.72.72,6.01,2.97,5.89,6.89-.11,3.66-2.41,5.74-5.89,6.41-1.45.28-2.99.15-4.49.15-31.66,0-63.32,0-94.98,0Z"/>
        <path class="cls-1" d="M212.46,62.63c-31.83,0-63.65,0-95.48-.02-1.81,0-4.15.34-5.32-.62-1.96-1.61-4.4-4.14-4.37-6.25.03-2.13,2.53-4.55,4.48-6.22,1.02-.87,3.19-.49,4.84-.49,63.82-.02,127.63-.01,191.45,0,1.33,0,2.7-.13,3.99.14,3.48.71,5.73,2.81,5.83,6.47.1,3.66-1.99,5.94-5.49,6.71-1.6.35-3.31.28-4.97.28-31.66.01-63.32.01-94.98,0Z"/>
        <path class="cls-1" d="M212.51,181.91c31.65,0,63.31,0,94.96,0,1.66,0,3.39-.19,4.98.18,3.47.81,6.08,3.27,5.24,6.71-.58,2.39-3.25,4.38-5.27,6.24-.67.61-2.24.29-3.4.29-64.47.01-128.95.02-193.42,0-5.79,0-8.64-2.3-8.64-6.68,0-4.44,2.83-6.73,8.59-6.73,32.32-.02,64.64,0,96.96-.01Z"/>
        <path class="cls-1" d="M212.51,270.51c31.15,0,62.31,0,93.46,0,1.5,0,3-.05,4.5.02,4.74.23,7.77,2.92,7.42,6.89-.39,4.35-3.04,6.44-7.38,6.43-4.33,0-8.66.03-12.99.03-60.31,0-120.62,0-180.93,0-1.33,0-2.7.14-3.99-.12-3.52-.7-5.63-2.83-5.63-6.55,0-3.69,1.96-5.93,5.59-6.51,1.63-.26,3.32-.18,4.98-.18,31.65,0,63.31,0,94.96,0Z"/>
        <path class="cls-1" d="M211.99,137.72c31.32,0,62.63,0,93.95,0,1.5,0,3-.04,4.5.02,4.72.18,7.79,2.87,7.45,6.82-.37,4.36-3,6.44-7.36,6.43-13.16,0-26.32.02-39.48.02-50.97,0-101.95,0-152.92,0-1.33,0-2.67.05-4-.01-4.52-.2-7.21-2.67-7.21-6.57,0-3.94,2.67-6.55,7.11-6.64,5.66-.12,11.33-.06,16.99-.07,26.99,0,53.97,0,80.96,0Z"/>
      </g>
    </g>
  </g>
</svg>