<?xml version="1.0" encoding="UTF-8"?>
<svg id="Layer_2" data-name="Layer 2" xmlns="http://www.w3.org/2000/svg" viewBox="0 0 97.77 44.44">
  <defs>
    <style>
      .cls-1 {
        fill: #fff;
        stroke-width: 0px;
      }
    </style>
  </defs>
  <g id="Layer_1-2" data-name="Layer 1">
    <path id="eyeglasses_FILL0_wght400_GRAD0_opsz24" data-name="eyeglasses FILL0 wght400 GRAD0 opsz24" class="cls-1" d="M26,35.55c2.22.03,4.38-.68,6.17-2,1.79-1.3,3.13-3.12,3.83-5.22l1.67-5.11c1.21-3.24.89-6.86-.89-9.83-1.49-2.83-4.46-4.58-7.67-4.5h-15.67l2.11,17.44c.34,2.54,1.58,4.86,3.5,6.55,1.89,1.75,4.37,2.7,6.95,2.67ZM71.77,35.55c2.57.04,5.06-.92,6.94-2.67,1.92-1.69,3.16-4.02,3.5-6.55l2.11-17.44h-15.56c-3.22-.07-6.19,1.7-7.67,4.55-1.77,2.99-2.1,6.63-.89,9.89l1.56,5c.7,2.1,2.04,3.92,3.83,5.22,1.78,1.32,3.95,2.03,6.17,2h0ZM26,44.44c-4.73.06-9.31-1.67-12.83-4.83-3.6-3.09-5.88-7.44-6.39-12.16l-2.33-18.55H0V0h29.11c3.14-.03,6.23.79,8.94,2.39,2.67,1.56,4.88,3.8,6.39,6.5h9c1.51-2.7,3.72-4.94,6.39-6.5C62.53.8,65.63-.03,68.77,0h29v8.89h-4.44l-2.33,18.55c-.5,4.72-2.79,9.07-6.39,12.16-3.52,3.17-8.1,4.89-12.83,4.83-4.08.04-8.07-1.22-11.39-3.61-3.33-2.35-5.81-5.73-7.05-9.61l-1.67-5c-.15-.52-.3-1.06-.44-1.61-.19-.79-.34-1.58-.44-2.39h-3.78c-.15.89-.3,1.61-.44,2.17-.15.56-.3,1.09-.45,1.62l-1.67,5.11c-1.26,3.89-3.73,7.28-7.05,9.66-3.3,2.42-7.29,3.7-11.38,3.66Z"/>
  </g>
</svg>