<?xml version="1.0" encoding="UTF-8"?>
<svg id="Layer_2" data-name="Layer 2" xmlns="http://www.w3.org/2000/svg" viewBox="0 0 185.4 195.28">
  <defs>
    <style>
      .cls-1 {
        fill: #8cafca;
        stroke-width: 0px;
      }
    </style>
  </defs>
  <g id="Layer_2-2" data-name="Layer 2">
    <g>
      <path class="cls-1" d="M169.86,180.05H15.54V15.23h154.32v164.82ZM17.72,177.86h149.95V17.42H17.72v160.45Z"/>
      <path class="cls-1" d="M185.4,195.28H0V0h185.4v195.28ZM4.37,190.91h176.65V4.37H4.37v186.54Z"/>
      <g>
        <g>
          <path class="cls-1" d="M143.26,35.09c.25-3.14-.49-6.31-1.83-9.16-.37-.78-.8-1.57-1.47-2.12-.67-.55-1.62-.84-2.42-.51-1.43.58-1.57,2.54-1.28,4.05.42,2.16,1.25,4.23,2.44,6.07-.17-.61-1.12-.69-1.55-.22-.42.48-.37,1.22-.1,1.8s.73,1.03,1.11,1.55c1.85,2.5,1.45,6.15-.66,8.36,3.64-.9,5.5-6.57,5.75-9.82Z"/>
          <path class="cls-1" d="M149.93,41.75c3.14-.25,6.31.49,9.16,1.83.78.37,1.57.8,2.12,1.47.55.67.84,1.62.51,2.42-.58,1.43-2.54,1.57-4.05,1.28-2.16-.42-4.23-1.25-6.07-2.44.61.17.69,1.12.22,1.55-.48.42-1.22.37-1.8.1-.57-.27-1.03-.73-1.55-1.11-2.5-1.85-6.15-1.45-8.36.66.9-3.64,6.57-5.5,9.82-5.75Z"/>
          <path class="cls-1" d="M156.2,35.98c-.39-.67-.9-1.28-1.5-1.78,1.04-.9,2.1-1.82,2.78-3.01.51-.89,1-2.45.56-3.46-.65-1.46-3.16-.75-4.18-.16-1.19.68-2.11,1.74-3.01,2.78-.51-.59-1.11-1.1-1.78-1.5-.43-.25-1.02-.45-1.4-.13-.36.29-.32.84-.27,1.3.3,2.78-.15,5.64-1.27,8.2l-.59,1.3,1.3-.59c2.56-1.12,5.42-1.56,8.2-1.27.46.05,1,.09,1.3-.27.32-.39.12-.97-.13-1.4Z"/>
        </g>
        <g>
          <path class="cls-1" d="M35.47,41.75c-3.14-.25-6.31.49-9.16,1.83-.78.37-1.57.8-2.12,1.47-.55.67-.84,1.62-.51,2.42.58,1.43,2.54,1.57,4.05,1.28,2.16-.42,4.23-1.25,6.07-2.44-.61.17-.69,1.12-.22,1.55.48.42,1.22.37,1.8.1s1.03-.73,1.55-1.11c2.5-1.85,6.15-1.45,8.36.66-.9-3.64-6.57-5.5-9.82-5.75Z"/>
          <path class="cls-1" d="M42.13,35.09c-.25-3.14.49-6.31,1.83-9.16.37-.78.8-1.57,1.47-2.12.67-.55,1.62-.84,2.42-.51,1.43.58,1.57,2.54,1.28,4.05-.42,2.16-1.25,4.23-2.44,6.07.17-.61,1.12-.69,1.55-.22.42.48.37,1.22.1,1.8-.27.57-.73,1.03-1.11,1.55-1.85,2.5-1.45,6.15.66,8.36-3.64-.9-5.5-6.57-5.75-9.82Z"/>
          <path class="cls-1" d="M36.36,28.82c-.67.39-1.28.9-1.78,1.5-.9-1.04-1.82-2.1-3.01-2.78-.89-.51-2.45-1-3.46-.56-1.46.65-.75,3.16-.16,4.18.68,1.19,1.74,2.11,2.78,3.01-.59.51-1.1,1.11-1.5,1.78-.25.43-.45,1.02-.13,1.4.29.36.84.32,1.3.27,2.78-.3,5.64.15,8.2,1.27l1.3.59-.59-1.3c-1.12-2.56-1.56-5.42-1.27-8.2.05-.46.09-1-.27-1.3-.39-.32-.97-.12-1.4.13Z"/>
        </g>
      </g>
      <g>
        <g>
          <path class="cls-1" d="M42.16,161.87c-.25,3.14.49,6.32,1.84,9.17.37.78.8,1.57,1.47,2.12.67.55,1.62.84,2.42.51,1.43-.58,1.57-2.54,1.28-4.06-.42-2.16-1.26-4.24-2.45-6.08.17.61,1.13.69,1.55.22.42-.48.37-1.22.1-1.8s-.73-1.04-1.11-1.55c-1.85-2.51-1.45-6.16.66-8.37-3.65.9-5.51,6.58-5.76,9.84Z"/>
          <path class="cls-1" d="M35.49,155.2c-3.14.25-6.32-.49-9.17-1.84-.78-.37-1.57-.8-2.12-1.47-.55-.67-.84-1.62-.51-2.42.58-1.43,2.54-1.57,4.06-1.28,2.16.42,4.24,1.26,6.08,2.45-.61-.17-.69-1.13-.22-1.55.48-.42,1.22-.37,1.8-.1.57.27,1.04.73,1.55,1.11,2.51,1.85,6.16,1.45,8.37-.66-.9,3.65-6.58,5.51-9.84,5.76Z"/>
          <path class="cls-1" d="M29.2,160.98c.4.67.9,1.28,1.5,1.78-1.04.9-2.1,1.82-2.79,3.01-.51.89-1,2.46-.56,3.47.65,1.47,3.17.75,4.19.17,1.19-.68,2.11-1.74,3.01-2.79.51.59,1.11,1.1,1.78,1.5.43.25,1.02.45,1.41.13.36-.3.32-.84.27-1.3-.3-2.79.15-5.65,1.27-8.21l.6-1.3-1.3.6c-2.57,1.12-5.43,1.57-8.21,1.27-.46-.05-1-.09-1.3.27-.32.39-.12.97.13,1.41Z"/>
        </g>
        <g>
          <path class="cls-1" d="M150.39,154.92c3.02.24,6.07-.47,8.8-1.76.75-.36,1.51-.77,2.04-1.41.53-.64.81-1.56.49-2.33-.56-1.37-2.44-1.51-3.89-1.23-2.07.4-4.07,1.21-5.84,2.35.59-.16.67-1.08.21-1.49-.46-.41-1.18-.36-1.73-.1s-.99.7-1.49,1.07c-2.41,1.78-5.92,1.39-8.04-.64.87,3.5,6.32,5.29,9.44,5.53Z"/>
          <path class="cls-1" d="M143.98,161.32c.24,3.02-.47,6.07-1.76,8.8-.36.75-.77,1.51-1.41,2.04-.64.53-1.56.81-2.33.49-1.37-.56-1.51-2.44-1.23-3.89.4-2.07,1.21-4.07,2.35-5.84-.16.59-1.08.67-1.49.21-.41-.46-.36-1.18-.1-1.73.26-.55.7-.99,1.07-1.49,1.78-2.41,1.39-5.92-.64-8.04,3.5.87,5.29,6.32,5.53,9.44Z"/>
          <path class="cls-1" d="M149.53,167.35c.65-.38,1.23-.87,1.71-1.44.86,1,1.75,2.02,2.89,2.67.86.49,2.36.96,3.33.53,1.41-.62.72-3.04.16-4.02-.66-1.14-1.68-2.03-2.67-2.89.57-.49,1.06-1.07,1.44-1.71.24-.42.43-.98.12-1.35-.28-.34-.81-.31-1.25-.26-2.67.28-5.42-.14-7.89-1.22l-1.25-.57.57,1.25c1.08,2.46,1.5,5.21,1.22,7.89-.05.44-.08.96.26,1.25.37.31.93.12,1.35-.12Z"/>
        </g>
      </g>
      <g>
        <circle class="cls-1" cx="94.09" cy="42.05" r="2.11"/>
        <path class="cls-1" d="M89.45,40.79s-2.25-3.94-6.75-3.94-4.99,2.73-4.64,3.79c.56,1.69,3.65,1.69,5.25-.7,1.09-1.64,6.14.84,6.14.84Z"/>
        <path class="cls-1" d="M98.78,40.79s2.25-3.94,6.75-3.94c4.5,0,4.99,2.73,4.64,3.79-.56,1.69-3.65,1.69-5.25-.7-1.09-1.64-6.14.84-6.14.84Z"/>
        <path class="cls-1" d="M91.98,38.82s-1.69-7.03-5.62-7.03-2.81,3.37-2.81,3.37c.64,1.41,4.64-.14,6.89,2.39,1.41,1.69,1.55,1.26,1.55,1.26Z"/>
        <path class="cls-1" d="M96.05,38.82s1.69-7.03,5.62-7.03c3.94,0,2.81,3.37,2.81,3.37-.64,1.41-4.64-.14-6.89,2.39-1.41,1.69-1.55,1.26-1.55,1.26Z"/>
        <path class="cls-1" d="M93.95,36.57s2.1-5.72,2.1-6.94-.69-1.76-2.1-1.76-1.97,1.3-1.97,2.19,1.97,6.51,1.97,6.51Z"/>
      </g>
      <g>
        <circle class="cls-1" cx="94.14" cy="154.91" r="2.11"/>
        <path class="cls-1" d="M98.78,156.17s2.25,3.94,6.75,3.94,4.99-2.73,4.64-3.79c-.56-1.69-3.65-1.69-5.25.7-1.09,1.64-6.14-.84-6.14-.84Z"/>
        <path class="cls-1" d="M89.45,156.17s-2.25,3.94-6.75,3.94-4.99-2.73-4.64-3.79c.56-1.69,3.65-1.69,5.25.7,1.09,1.64,6.14-.84,6.14-.84Z"/>
        <path class="cls-1" d="M96.25,158.14s1.69,7.03,5.62,7.03,2.81-3.37,2.81-3.37c-.64-1.41-4.64.14-6.89-2.39-1.41-1.69-1.55-1.26-1.55-1.26Z"/>
        <path class="cls-1" d="M92.18,158.14s-1.69,7.03-5.62,7.03-2.81-3.37-2.81-3.37c.64-1.41,4.64.14,6.89-2.39,1.41-1.69,1.55-1.26,1.55-1.26Z"/>
        <path class="cls-1" d="M94.28,160.39s-2.1,5.72-2.1,6.94.69,1.76,2.1,1.76,1.97-1.3,1.97-2.19-1.97-6.51-1.97-6.51Z"/>
      </g>
      <g>
        <path class="cls-1" d="M42.77,64.29c4.25,0,8.21,2.02,10.75,5.52h-6.49c-2.65-2.5-5.6-3.88-8.14-3.88-3.7,0-6.12,2.87-6.12,7.09,0,7.32,7.13,16.12,13.92,16.12,2.95,0,5.08-1.83,5.82-4.74h1.57c-2.46,4.03-6.61,6.38-11.31,6.38-7.28,0-13.21-5.93-13.21-13.21s5.93-13.29,13.21-13.29Z"/>
        <path class="cls-1" d="M72.07,88.32l2.02,2.28h-8.88l2.02-2.28v-11.12c0-1.87-1.38-3.62-3.21-3.62-1.01,0-2.05.52-2.95,1.49v13.25l2.02,2.28h-8.88l2.02-2.28v-15.79c0-4.59,2.28-7.8,6.34-7.8,3.14,0,4.85,1.94,4.85,4.26,0,1.04-.63,2.2-1.6,2.95.45-.07.86-.11,1.27-.11,3.1,0,5,2.43,5,5.34v11.16ZM67.1,68.99c0-1.87-1.38-3.51-2.95-3.51-2.09,0-3.1,2.54-3.1,5.23v4.07c1.12-1.12,2.13-1.83,3.43-2.43,1.75-.78,2.61-1.9,2.61-3.36Z"/>
        <path class="cls-1" d="M81.17,77.76c2.35,0,3.1.71,3.84,1.42-.67-.97-2.43-3.02-5.26-3.02h-2.8c1.42-2.58,4.89-4.4,8.25-4.4s6.49,1.46,6.49,5.11v11.46l2.02,2.28h-6.87v-4.55c-1.16,3.28-3.55,4.67-6.08,4.67-3.51,0-6.23-2.84-6.23-6.46s3.02-6.49,6.64-6.49ZM83.67,88.51c2.13,0,3.1-2.16,3.1-4.22,0-2.69-1.94-6.16-4.67-6.16-1.98,0-3.1,2.02-3.1,4.14,0,2.95,2.16,6.23,4.67,6.23ZM86.85,82.46v-7.43c0-1.9-.6-2.84-1.75-2.84-1.83,0-2.87,2.05-3.32,3.99,1.08.41,3.92,1.83,5.08,6.27Z"/>
        <path class="cls-1" d="M107.11,76.75c-2.69.15-5.82.48-5.82,3.84v7.73l2.02,2.28h-8.88l2.02-2.28v-12.76l-2.02-1.34,6.87-2.28v6.72c.97-4.81,2.58-6.79,7.28-6.72l-1.46,4.81Z"/>
        <path class="cls-1" d="M135.21,88.32l2.02,2.28h-8.88l2.02-2.28v-11.16c0-1.68-.93-3.4-2.5-3.4-.82,0-1.68.48-2.46,1.46.19.6.3,1.23.3,1.9v11.2l2.02,2.28h-8.88l2.02-2.28v-11.16c0-1.83-.97-3.4-2.39-3.4-.78,0-1.6.48-2.39,1.42v13.14l2.02,2.28h-8.88l2.02-2.28v-12.5l-2.02-1.34,6.87-2.54v2.76c1.6-1.87,3.43-2.87,5.15-2.87,1.94,0,3.43,1.16,4.07,3.02,1.68-1.98,3.62-3.02,5.41-3.02,2.87,0,4.52,2.58,4.52,5.3v11.2Z"/>
        <path class="cls-1" d="M137.97,81.31c0-5.3,4.29-9.55,9.55-9.55,3.25,0,6.27,1.64,8.06,4.44h-7.24c5,.86,8.14,3.55,8.14,7.58,0,3.55-3.14,7.02-8.81,7.02s-9.7-4.22-9.7-9.48ZM150.78,88.62c3.06,0,5.26-2.61,5.26-5.45,0-4.25-5.08-6.98-10.49-6.98h-3.4c-.52,6.01,3.25,12.43,8.62,12.43ZM142.19,75.9h7.73c-.6-1.94-2.28-3.47-4.22-3.47-2.09,0-3.25,1.27-3.51,3.47ZM142.98,69.36l-.15-.19,8.51-4.7,1.53,2.95-9.89,1.94Z"/>
        <path class="cls-1" d="M45.18,105.54c0,3.38-2.48,4.58-6.93,6.97-2.81,1.53-6.15,3.59-6.15,7.14v6.19l2.23,2.52h-9.82l2.23-2.52v-23.85l-2.23-2.52h13.99c3.8,0,6.69,2.6,6.69,6.07ZM32.1,117.71c.54-1.57,1.77-2.85,4.04-4.33,3.14-2.06,3.59-5.74,3.59-7.72,0-3.92-2.48-5.86-6.52-5.86h-1.11v17.91Z"/>
        <path class="cls-1" d="M49.52,114.16c2.6,0,3.43.78,4.25,1.57-.74-1.07-2.68-3.34-5.82-3.34h-3.1c1.57-2.85,5.41-4.87,9.12-4.87s7.18,1.61,7.18,5.65v12.67l2.23,2.52h-7.59v-5.04c-1.28,3.63-3.92,5.16-6.73,5.16-3.88,0-6.89-3.14-6.89-7.14s3.34-7.18,7.35-7.18ZM52.28,126.05c2.35,0,3.43-2.39,3.43-4.66,0-2.97-2.15-6.81-5.16-6.81-2.19,0-3.43,2.23-3.43,4.58,0,3.26,2.39,6.89,5.16,6.89ZM55.79,119.36v-8.21c0-2.1-.66-3.14-1.94-3.14-2.02,0-3.18,2.27-3.67,4.42,1.2.45,4.33,2.02,5.61,6.93Z"/>
        <path class="cls-1" d="M80.72,122.42c0,3.59-3.38,5.94-7.22,5.94h-7.84l-.7-6.77,6.97,6.27c.5.08.99.12,1.57.12,2.35,0,4.29-.91,4.29-2.39,0-2.27-4.13-4-6.77-5.49l-1.94-1.07c-2.6-1.44-4.37-3.51-4.37-5.94,0-3.3,3.01-5.37,6.48-5.37h7.26l.83,6.44-6.27-5.9c-.37-.08-1.16-.17-1.82-.17-1.61,0-3.8.41-3.8,1.98,0,1.94,2.19,3.1,5.32,4.75l2.52,1.32c2.97,1.57,5.49,3.76,5.49,6.27Z"/>
        <path class="cls-1" d="M92.85,128.24c-.54.21-1.07.29-1.57.29-5.2,0-7.47-3.01-7.47-8.09v-12.38h-2.56l7.92-5.36v5.03h3.63v.33h-3.63v14.32c0,3.43.91,5.86,3.67,5.7v.17Z"/>
        <path class="cls-1" d="M108.25,113.05c-2.97.17-6.44.54-6.44,4.25v8.54l2.23,2.52h-9.82l2.23-2.52v-14.11l-2.23-1.49,7.59-2.52v7.43c1.07-5.32,2.85-7.51,8.05-7.43l-1.61,5.32Z"/>
        <path class="cls-1" d="M113.32,125.84v-14.16l-2.23-1.49,7.59-2.48v18.12l2.23,2.52h-9.82l2.23-2.52ZM112.83,102.98c0-1.69,1.36-3.05,3.05-3.05s3.05,1.36,3.05,3.05-1.36,3.05-3.05,3.05-3.05-1.36-3.05-3.05Z"/>
        <path class="cls-1" d="M122.45,118.08c0-5.86,4.75-10.56,10.56-10.56,3.59,0,6.93,1.82,8.91,4.91h-8.01c5.53.95,9,3.92,9,8.38,0,3.92-3.47,7.76-9.74,7.76s-10.73-4.66-10.73-10.48ZM136.6,126.17c3.38,0,5.82-2.89,5.82-6.03,0-4.7-5.61-7.72-11.6-7.72h-3.76c-.58,6.64,3.59,13.74,9.53,13.74ZM127.11,112.1h8.54c-.66-2.15-2.52-3.84-4.66-3.84-2.31,0-3.59,1.4-3.88,3.84Z"/>
        <path class="cls-1" d="M160.83,122.42c0,3.59-3.38,5.94-7.22,5.94h-7.84l-.7-6.77,6.97,6.27c.5.08.99.12,1.57.12,2.35,0,4.29-.91,4.29-2.39,0-2.27-4.13-4-6.77-5.49l-1.94-1.07c-2.6-1.44-4.37-3.51-4.37-5.94,0-3.3,3.01-5.37,6.48-5.37h7.26l.83,6.44-6.27-5.9c-.37-.08-1.16-.17-1.82-.17-1.61,0-3.8.41-3.8,1.98,0,1.94,2.19,3.1,5.32,4.75l2.52,1.32c2.97,1.57,5.49,3.76,5.49,6.27Z"/>
      </g>
    </g>
  </g>
</svg>