<?xml version="1.0" encoding="UTF-8"?>
<svg id="Layer_2" data-name="Layer 2" xmlns="http://www.w3.org/2000/svg" viewBox="0 0 108.2 83.94">
  <defs>
    <style>
      .cls-1 {
        fill: #7795ab;
        stroke-width: 0px;
      }
    </style>
  </defs>
  <g id="Layer_2-2" data-name="Layer 2">
    <g>
      <path class="cls-1" d="M39.32,49.39c-6.41-7.51-15.09-12.91-24.38-16.24-2.56-.92-5.25-1.7-7.96-1.45-2.71.25-5.45,1.73-6.51,4.23-1.88,4.45,2.15,9.12,6.15,11.82,5.71,3.85,12.16,6.6,18.89,8.05-1.73-.99-4.03.96-3.91,2.95.12,1.99,1.88,3.54,3.76,4.21,1.88.66,3.92.67,5.89.97,9.65,1.45,16.86,10.44,17.07,20.02,6.08-10.08-2.38-26.77-9.02-34.55Z"/>
      <path class="cls-1" d="M68.88,49.39c6.41-7.51,15.09-12.91,24.38-16.24,2.56-.92,5.25-1.7,7.96-1.45,2.71.25,5.45,1.73,6.51,4.23,1.88,4.45-2.15,9.12-6.15,11.82-5.71,3.85-12.16,6.6-18.89,8.05,1.73-.99,4.03.96,3.91,2.95-.12,1.99-1.88,3.54-3.76,4.21-1.88.66-3.92.67-5.89.97-9.65,1.45-16.86,10.44-17.07,20.02-6.08-10.08,2.38-26.77,9.02-34.55Z"/>
      <path class="cls-1" d="M70,22.68c-2.37-.61-4.83-.83-7.27-.63.32-4.29.62-8.69-.5-12.84-.84-3.12-3.22-7.66-6.45-8.91-4.68-1.82-8.68,5.35-9.65,8.91-1.12,4.16-.82,8.55-.5,12.84-2.44-.19-4.9.02-7.27.63-1.52.4-3.26,1.26-3.4,2.83-.13,1.44,1.15,2.57,2.28,3.48,6.83,5.52,12.19,12.83,15.38,21.01l1.55,4.19,1.55-4.19c3.2-8.17,8.56-15.49,15.38-21.01,1.13-.91,2.42-2.04,2.28-3.48-.15-1.57-1.88-2.43-3.4-2.83Z"/>
    </g>
  </g>
</svg>