<?xml version="1.0" encoding="UTF-8"?>
<svg id="Layer_2" data-name="Layer 2" xmlns="http://www.w3.org/2000/svg" viewBox="0 0 194 178.96">
  <defs>
    <style>
      .cls-1 {
        fill: #fff;
        stroke-width: 0px;
      }
    </style>
  </defs>
  <g id="Layer_2-2" data-name="Layer 2">
    <g id="KaYy1q.tif">
      <g>
        <path class="cls-1" d="M96.3,0c1.22.52,2.43,1.05,3.65,1.56,14.49,5.95,28.99,11.9,43.49,17.85,11.79,4.84,23.57,9.68,35.36,14.5.46.19.6.42.59.91-.02,3.79-.01,7.57-.01,11.36v.67c-.82-.31-1.59-.6-2.35-.89-23.28-8.99-46.55-17.98-69.83-26.97-3.76-1.45-7.51-2.91-11.27-4.34-.28-.11-.68-.09-.96.02-9.48,3.84-18.95,7.69-28.42,11.54-17.34,7.06-34.69,14.12-52.03,21.17-.18.07-.36.13-.63.23v-.69c0-3.77,0-7.54-.01-11.31,0-.5.14-.75.62-.95,15.68-6.63,31.36-13.29,47.04-19.93,11.32-4.8,22.65-9.6,33.97-14.41.21-.09.39-.22.59-.33.07,0,.14,0,.22,0Z"/>
        <path class="cls-1" d="M0,172.04c.23-.02.46-.06.69-.06,56.24,0,112.49,0,168.73,0,7.95,0,15.9,0,23.86.01.22,0,.43,0,.72,0v6.98H0c0-2.31,0-4.62,0-6.92Z"/>
        <path class="cls-1" d="M20.97,68.15h-7.11v-13.86h166.36v13.83h-6.85v76.12h6.78c.02.2.05.34.05.48,0,2,0,4,.01,6,0,.4-.11.57-.52.51-.11-.02-.22,0-.32,0-24.69,0-49.37,0-74.06,0-30.24,0-60.48,0-90.72.01-.25,0-.5,0-.79,0v-6.95h7.18v-76.15ZM48.66,144.25v-76.05h-13.79v76.05h13.79ZM62.57,68.17v76.05h13.78v-76.05h-13.78ZM104.05,144.24v-76.05h-13.77v76.05h13.77ZM131.75,144.23v-76.05h-13.78v76.05h13.78ZM159.47,68.18h-13.8v76.03h13.8v-76.03Z"/>
        <path class="cls-1" d="M187.11,158.13c.01.19.03.33.03.47,0,1.98,0,3.97,0,5.95,0,.39-.08.53-.51.53-7.55-.01-15.11-.01-22.66-.02-.23,0-.47,0-.7,0-42.1,0-84.2,0-126.31,0-9.81,0-19.62,0-29.43-.01-.21,0-.43,0-.69,0v-6.92h180.25Z"/>
        <path class="cls-1" d="M155.4,47.67c-1.47,0-2.94,0-4.4,0-6.04-.03-12.08-.07-18.12-.06-.96,0-1.8-.29-2.66-.6-10.98-3.88-21.96-7.77-32.94-11.67-.45-.16-.84-.15-1.29,0-11.3,3.77-22.6,7.53-33.9,11.27-.48.16-1.03.19-1.54.19-7.9.09-15.79.17-23.69.25-.07,0-.14,0-.35-.01.21-.12.32-.19.43-.24,19.84-7.94,39.69-15.88,59.54-23.8.23-.09.56-.04.8.05,13.3,5.6,26.6,11.22,39.89,16.83,5.93,2.5,11.85,5.01,17.78,7.51.16.07.31.14.46.21,0,.03-.02.05-.03.08Z"/>
      </g>
    </g>
  </g>
</svg>