<?xml version="1.0" encoding="UTF-8"?>
<svg id="Layer_2" data-name="Layer 2" xmlns="http://www.w3.org/2000/svg" viewBox="0 0 193.01 147.48">
  <defs>
    <style>
      .cls-1 {
        fill: #fff;
        stroke-width: 0px;
      }
    </style>
  </defs>
  <g id="Layer_2-2" data-name="Layer 2">
    <g id="hTOHga.tif">
      <g>
        <path class="cls-1" d="M50.74,147.48c0-6.93-.03-13.87.02-20.8.08-11.87,9.09-21.69,21.01-21.96,16.69-.37,33.4-.33,50.09-.01,10.96.21,19.35,8.04,20.5,19.09.82,7.84.64,15.79.9,23.69H50.74Z"/>
        <path class="cls-1" d="M0,122.65c1.38-3.13,2.13-6.84,4.32-9.23,2.54-2.78,6.26-6.03,9.64-6.22,12.58-.73,25.23-.29,38.97-.29-10.9,9.38-9.19,21.49-9.21,33.4-14.48,0-28.47,0-42.46-.03-.42,0-.84-.48-1.26-.74,0-5.63,0-11.26,0-16.89Z"/>
        <path class="cls-1" d="M96.65,44.18c14.23,0,25.65,11.24,25.71,25.33.06,14.34-11.46,26.09-25.62,26.13-13.91.04-26.01-12.13-25.93-26.07.08-13.89,11.77-25.38,25.84-25.39Z"/>
        <path class="cls-1" d="M150.04,140.11c-.1-11.71,1.34-23.66-9.08-33.08,2.04-.23,3.24-.48,4.44-.48,9.94-.03,19.88-.16,29.82.04,10.95.21,17.72,7.34,17.77,18.31.02,4.95,0,9.9,0,15.21h-42.95Z"/>
        <path class="cls-1" d="M56.86,79.1c.01,11.14-9,20.22-20.07,20.23-11.06,0-20.3-9.06-20.44-20.05-.14-11.13,9.2-20.42,20.51-20.38,11.19.03,19.98,8.91,19.99,20.2Z"/>
        <path class="cls-1" d="M157.08,59.08c11.01.08,20.11,9.38,19.95,20.38-.16,10.95-9.67,20.14-20.57,19.88-11.04-.26-20.23-9.69-20-20.52.23-11.02,9.43-19.82,20.62-19.74Z"/>
        <path class="cls-1" d="M91.58,11.58c0-2.48-.41-5.07.15-7.41.37-1.56,2.14-2.79,3.28-4.16,1.4,1.18,3.93,2.28,4.02,3.54.36,5.43.26,10.92-.27,16.34-.12,1.24-2.49,2.9-4.01,3.13-.86.13-2.76-2.12-3.04-3.52-.5-2.55-.14-5.27-.14-7.92,0,0,.01,0,.02,0Z"/>
        <path class="cls-1" d="M167.18,33.55c-.42.6-.99,2.11-2.07,2.8-4.17,2.66-8.38,5.32-12.86,7.38-1.45.66-3.75-.54-5.67-.88.65-1.82.75-4.39,2.04-5.31,4.01-2.86,8.4-5.23,12.77-7.54,3.14-1.66,5.62-.34,5.78,3.55Z"/>
        <path class="cls-1" d="M45.66,42.01c-2.38.82-4.7,2.48-5.98,1.9-5.06-2.33-9.9-5.19-14.54-8.28-.97-.65-1.33-3.35-.83-4.68.35-.92,3.08-1.95,4.01-1.48,5.13,2.58,10.07,5.55,14.97,8.56.83.51,1.14,1.85,2.37,3.98Z"/>
        <path class="cls-1" d="M72.37,24.26c-1.15,1.52-1.7,2.93-2.7,3.38-1,.46-3.15.44-3.57-.19-3.47-5.2-6.75-10.54-9.81-15.99-.39-.69.51-2.68,1.37-3.31.87-.64,3.19-.9,3.57-.38,3.82,5.31,7.37,10.82,11.14,16.48Z"/>
        <path class="cls-1" d="M133.78,10.7c-.73,1.56-1.18,2.78-1.83,3.89-2.26,3.83-4.37,7.79-7.03,11.34-.9,1.2-3.25,1.31-4.94,1.92-.47-1.73-1.86-3.92-1.26-5.11,2.44-4.84,5.33-9.48,8.43-13.93.65-.93,2.95-1.2,4.35-.96.88.15,1.51,1.82,2.28,2.86Z"/>
      </g>
    </g>
  </g>
</svg>