<?xml version="1.0" encoding="UTF-8"?>
<svg id="Layer_2" data-name="Layer 2" xmlns="http://www.w3.org/2000/svg" xmlns:xlink="http://www.w3.org/1999/xlink" viewBox="0 0 70.05 70.06">
  <defs>
    <style>
      .cls-1 {
        fill: none;
      }

      .cls-1, .cls-2 {
        stroke-width: 0px;
      }

      .cls-2 {
        fill: #fff;
      }

      .cls-3 {
        clip-path: url(#clippath);
      }
    </style>
    <clipPath id="clippath">
      <rect class="cls-1" width="70.05" height="70.06"/>
    </clipPath>
  </defs>
  <g id="Layer_1-2" data-name="Layer 1">
    <g class="cls-3">
      <g id="Group_142" data-name="Group 142">
        <path id="Path_173" data-name="Path 173" class="cls-2" d="M0,32.57c.18-1.23.32-2.47.54-3.7,1.26-7.35,4.89-14.09,10.32-19.2C15.9,4.78,22.32,1.57,29.25.47c19.09-3.18,37.14,9.71,40.32,28.8,3.04,18.25-8.63,35.72-26.65,39.89-1.59.38-3.23.51-4.85.76-.2.03-.4.09-.6.13h-4.92c-1.1-.15-2.21-.26-3.3-.45-6.92-1.13-13.34-4.34-18.4-9.21C5.43,55.29,1.8,48.55.54,41.2c-.22-1.23-.36-2.47-.54-3.7v-4.92M67.72,35.07c.02-18.06-14.61-32.71-32.67-32.73-18.06-.02-32.71,14.61-32.73,32.67-.02,18.05,14.59,32.7,32.64,32.73,18.05.04,32.71-14.55,32.76-32.6,0-.02,0-.04,0-.07"/>
        <path id="Path_174" data-name="Path 174" class="cls-2" d="M58.58,35.04c0,13.01-10.55,23.56-23.57,23.56-13.01,0-23.56-10.55-23.56-23.57,0-13.01,10.55-23.56,23.57-23.56.01,0,.02,0,.03,0,13,0,23.53,10.54,23.53,23.54,0,0,0,.02,0,.03M35.03,13.44c-11.93,0-21.6,9.66-21.61,21.59s9.66,21.6,21.59,21.61c11.92,0,21.6-9.65,21.61-21.58-.02-11.92-9.67-21.59-21.59-21.62"/>
        <path id="Path_175" data-name="Path 175" class="cls-2" d="M39.68,49.58c-.2-.21-.54-.43-.66-.73-.16-.4.04-.85.44-1.01.03-.01.06-.02.09-.03.38-.15.78-.23,1.16-.39,3.38-1.44,5.95-4.29,7.03-7.8.37-1.03.68-1.32,1.29-1.14.59.18.72.73.36,1.73-1.58,4.35-4.33,7.58-8.81,9.12-.23.08-.48.13-.88.24"/>
      </g>
    </g>
  </g>
</svg>