<?xml version="1.0" encoding="UTF-8"?>
<svg id="Layer_2" data-name="Layer 2" xmlns="http://www.w3.org/2000/svg" xmlns:xlink="http://www.w3.org/1999/xlink" viewBox="0 0 919.03 52.49">
  <defs>
    <style>
      .cls-1 {
        clip-path: url(#clippath);
      }

      .cls-2, .cls-3 {
        fill: none;
      }

      .cls-2, .cls-4 {
        stroke-width: 0px;
      }

      .cls-3 {
        stroke: #8cafca;
        stroke-linecap: round;
        stroke-width: 2px;
      }

      .cls-4 {
        fill: #8cafca;
      }
    </style>
    <clipPath id="clippath">
      <rect class="cls-2" x="425.5" y="0" width="67.65" height="52.49"/>
    </clipPath>
  </defs>
  <g id="Layer_3" data-name="Layer 3">
    <g id="line">
      <g id="Group_52" data-name="Group 52">
        <g class="cls-1">
          <g id="Group_51" data-name="Group 51">
            <path id="Path_97" data-name="Path 97" class="cls-4" d="M450.09,30.88c-4.12-4.65-9.37-8.15-15.24-10.16-1.57-.66-3.27-.97-4.98-.91-1.73.09-3.29,1.1-4.07,2.65-1.17,2.78,1.34,5.7,3.85,7.39,3.58,2.41,7.59,4.12,11.81,5.03-1.08-.62-2.52.6-2.44,1.84.21,1.26,1.12,2.29,2.35,2.63,1.21.32,2.44.52,3.68.6,6.04.91,10.54,6.53,10.68,12.51,3.8-6.3-1.49-16.74-5.64-21.6"/>
            <path id="Path_98" data-name="Path 98" class="cls-4" d="M468.57,30.88c4.12-4.65,9.37-8.15,15.25-10.16,1.57-.66,3.27-.97,4.98-.91,1.73.09,3.28,1.1,4.07,2.65,1.18,2.78-1.34,5.7-3.85,7.39-3.58,2.41-7.59,4.12-11.81,5.03,1.08-.62,2.52.6,2.44,1.84-.21,1.26-1.12,2.29-2.35,2.63-1.21.32-2.44.52-3.68.6-6.04.91-10.54,6.53-10.68,12.51-3.8-6.3,1.49-16.74,5.64-21.6"/>
            <path id="Path_99" data-name="Path 99" class="cls-4" d="M469.27,14.18c-1.48-.38-3.02-.52-4.54-.4.35-2.68.24-5.39-.31-8.03-.53-1.95-2.01-4.79-4.03-5.57-2.93-1.14-5.43,3.34-6.03,5.57-.56,2.64-.66,5.35-.31,8.03-1.53-.12-3.06.02-4.54.4-.95.25-2.04.79-2.13,1.77-.08.9.72,1.61,1.43,2.17,4.28,3.47,7.6,8,9.61,13.13l.97,2.62.97-2.62c2.02-5.14,5.33-9.66,9.62-13.13.7-.57,1.51-1.27,1.43-2.18-.09-.98-1.17-1.52-2.13-1.77"/>
          </g>
        </g>
      </g>
      <line id="Line_12" data-name="Line 12" class="cls-3" x1="384.03" y1="25.45" x2="1" y2="25.45"/>
      <line id="Line_13" data-name="Line 13" class="cls-3" x1="918.03" y1="25.45" x2="535" y2="25.45"/>
    </g>
  </g>
</svg>