<?xml version="1.0" encoding="UTF-8"?>
<svg id="Layer_2" data-name="Layer 2" xmlns="http://www.w3.org/2000/svg" viewBox="0 0 511.04 511.12">
  <defs>
    <style>
      .cls-1 {
        stroke-width: 0px;
      }
    </style>
  </defs>
  <g id="Layer_2-2" data-name="Layer 2">
    <g>
      <path class="cls-1" d="M0,237.65c1.3-9,2.36-18.04,3.96-26.98,9.81-54.89,35.07-101.63,75.28-140.1C116.99,34.46,161.89,11.83,213.44,3.45c138.75-22.57,263.66,68.08,291.62,197.18,29.83,137.73-54.56,271.34-191.9,303.98-11.57,2.75-23.56,3.72-35.35,5.55-1.46.23-2.89.63-4.34.95h-35.93c-8.04-1.08-16.12-1.89-24.11-3.28-51.45-8.93-96.44-31.06-134.19-67.18C39.03,402.19,13.76,355.45,3.96,300.56,2.36,291.61,1.3,282.57,0,273.58c0-11.98,0-23.95,0-35.93ZM494.1,255.87c.06-131.66-106.34-238.66-237.48-238.85-132.62-.19-239.61,106.08-239.73,238.09-.11,132.15,106.38,239.04,238.22,239.1,132.14.07,238.93-106.44,238.99-238.35Z"/>
      <path class="cls-1" d="M427.41,255.62c0,95.23-77.09,172.21-172.16,171.93-95.18-.28-171.68-76.9-171.68-171.93,0-95.21,77.11-172.21,172.18-171.93,95.19.28,171.66,76.87,171.66,171.94ZM255.55,98.04c-86.77-.04-157.67,70.87-157.62,157.65.05,86.61,70.62,157.28,157.27,157.49,86.73.22,157.75-70.59,157.87-157.4.12-86.76-70.72-157.71-157.52-157.74Z"/>
      <path class="cls-1" d="M289.48,361.7c-1.44-1.52-3.96-3.12-4.85-5.35-1.31-3.32.43-6.21,3.81-7.59,2.75-1.12,5.72-1.7,8.46-2.84,26.13-10.82,41.91-31.03,51.28-56.94,2.72-7.51,4.96-9.61,9.44-8.28,4.33,1.29,5.28,5.3,2.6,12.66-11.55,31.72-31.56,55.3-64.3,66.55-1.71.59-3.5.97-6.44,1.78Z"/>
    </g>
  </g>
</svg>