<?xml version="1.0" encoding="UTF-8"?>
<svg id="Layer_2" data-name="Layer 2" xmlns="http://www.w3.org/2000/svg" viewBox="0 0 456.33 456.78">
  <defs>
    <style>
      .cls-1 {
        fill: #fff;
        stroke-width: 0px;
      }
    </style>
  </defs>
  <g id="Layer_2-2" data-name="Layer 2">
    <g id="f0CjjQ">
      <g>
        <path class="cls-1" d="M228.31,0c31.31.56,62.63.83,93.92,1.78,25.89.79,50.97,5.68,73.45,19.34,30.46,18.5,49.11,45.84,55.1,80.66,3.53,20.55,4.78,41.67,5.1,62.56.7,45.31.48,90.64-.04,135.95-.27,23.59-1.05,47.26-8.66,70.03-14.4,43.05-44.06,69.4-87.79,80.3-22.16,5.52-44.87,5.74-67.48,5.9-45.31.33-90.64.38-135.95-.15-23.92-.28-47.94-1.13-70.96-9.13-42.28-14.68-68.16-44.2-78.88-87.34C.67,337.92.41,315.38.24,292.94c-.33-45.32-.36-90.64.15-135.95.26-23.76,1.04-47.62,8.79-70.51C23.6,43.9,53.08,17.7,96.36,6.76,118.49,1.16,141.21,1.15,163.82.74c21.49-.39,42.99-.08,64.48-.08,0-.22,0-.44,0-.66ZM228.38,40.91c0,.42-.01.84-.02,1.27-22.99,0-45.99-.42-68.97.15-15.6.39-31.31,1.23-46.73,3.5-35.05,5.16-58.93,28.24-66.62,62.73-4.57,20.49-4.17,41.37-4.63,62.13-.61,27.65-.65,55.33-.18,82.99.48,28.12.54,56.35,3.2,84.3,3.6,37.85,25.41,64.07,63.34,72.72,20.64,4.7,41.7,4.2,62.62,4.68,27.82.64,55.67.66,83.49.19,27.95-.48,56.02-.51,83.8-3.22,37.37-3.66,63.65-25.03,72.42-63.06,4.75-20.62,4.28-41.69,4.74-62.61.62-27.98.65-56,.17-83.99-.47-27.78-1.16-55.6-3.12-83.31-1.31-18.56-8.16-35.55-21.25-49.52-16.92-18.05-38.71-24.93-62.39-26.04-33.26-1.56-66.58-1.97-99.87-2.87Z"/>
        <path class="cls-1" d="M228.21,111.51c64.17.09,116.43,52.21,117.26,114.96.87,65.78-52.81,119.95-117.94,119.42-63.68-.52-115.96-52.53-116.75-115.1-.84-66.36,53.38-120.15,117.43-119.29ZM304.13,228.74c.06-41.63-34.27-76.03-75.91-76.09-41.63-.06-76.04,34.25-76.1,75.9-.06,41.63,34.25,76.03,75.91,76.1,41.62.08,76.04-34.27,76.1-75.92Z"/>
        <path class="cls-1" d="M350.34,79.52c15.44.09,27.08,12.16,26.92,27.91-.15,14.96-12.72,27.32-27.56,27.08-15-.24-27.35-12.59-27.45-27.44-.1-15.35,12.43-27.64,28.09-27.55Z"/>
      </g>
    </g>
  </g>
</svg>