<?xml version="1.0" encoding="UTF-8"?>
<svg id="Layer_2" data-name="Layer 2" xmlns="http://www.w3.org/2000/svg" viewBox="0 0 155.28 101.89">
  <defs>
    <style>
      .cls-1 {
        fill: #fff;
        stroke-width: 0px;
      }
    </style>
  </defs>
  <g id="Layer_2-2" data-name="Layer 2">
    <g id="OUq61W">
      <g>
        <path class="cls-1" d="M14.76,25.42H.07c-.03-.5-.07-.86-.07-1.23,0-4.84-.02-9.69,0-14.53C.04,4.14,4.16.01,9.69,0c24.09-.01,48.18,0,72.26,0,5.54,0,9.69,4.12,9.71,9.64.03,8.22,0,16.45,0,24.67,0,.28,0,.57,0,.93h-4.23v-1.33c0-7.93,0-15.86,0-23.8,0-3.8-2.09-5.9-5.87-5.9-21,0-42,0-63,0-.32,0-.64.03-1.17.06,1.9,2.84,1.58,5.92,1.58,8.95,0,26.22,0,52.43-.01,78.65,0,2.41.89,4.24,3.08,5.27,1.95.92,3.84.62,5.51-.72,1.32-1.06,1.9-2.5,1.94-4.17.02-.62,0-1.24,0-1.93h69.34c1.16,6.02-3.08,11.34-9.23,11.53-1.92.06-3.84.02-5.76.02-19.62,0-39.24,0-58.86,0-6.29,0-10.23-3.93-10.23-10.23,0-21.42,0-42.83,0-64.25,0-.58,0-1.16,0-1.98ZM32.29,97.65c.49,0,.89,0,1.29,0,18.48,0,36.96,0,55.45,0,.33,0,.67,0,1-.02,2.02-.2,3.67-1.43,4.11-3.16-.68,0-1.34,0-1.99,0-13.39,0-26.78-.01-40.18-.01-5.8,0-11.6,0-17.4.03-.4,0-1.01.13-1.16.4-.45.82-.72,1.74-1.12,2.77ZM14.73,21.14c0-4.14.13-8.15-.04-12.14-.12-2.86-2.65-4.89-5.44-4.77-2.83.12-4.99,2.41-5.01,5.36-.02,3.38,0,6.76,0,10.14,0,.45,0,.89,0,1.4h10.5Z"/>
        <path class="cls-1" d="M93.6,60.72c-.23-2.14-.48-3.9-.61-5.67-.82-10.59,2.42-19.81,9.44-27.74.56-.64,1.15-1.18,2.03-.72.82.43.73,1.16.57,1.96-.27,1.38-.42,2.77-.64,4.36.28-.22.41-.28.46-.37,6.81-12.31,17.33-19.91,30.57-24.02,5.85-1.82,11.87-2.68,17.97-3,1.63-.09,2.24.66,1.7,2.12-4.36,11.77-10.18,22.7-19.06,31.71-2.7,2.74-5.97,4.91-8.99,7.34-.21.17-.45.3-.68.45.02.11.05.21.07.32,1.38-.1,2.77-.27,4.15-.25.58,0,1.37.25,1.66.67.23.33.03,1.26-.31,1.62-6.73,7.23-14.43,13-24.11,15.69-1.91.53-3.9.76-6.25,1.21.38-.76.56-1.15.77-1.52,7.82-14.03,17.35-26.71,29.64-37.18,2.33-1.99,2.77-4.82,1.1-6.97-1.74-2.24-4.78-2.5-7.09-.58-5.67,4.7-10.87,9.87-15.63,15.49-6.17,7.29-11.41,15.2-15.92,23.61-.21.38-.43.76-.84,1.48Z"/>
        <path class="cls-1" d="M88.96,78.85c.1-.86.21-1.64.29-2.42.25-2.31,1.01-4.43,2.04-6.51,6.52-13.14,14.29-25.46,24.21-36.31,3.65-3.99,7.72-7.61,11.66-11.33,1.24-1.17,2.9-1,3.89.17,1,1.18.84,2.76-.47,3.87-15.04,12.74-25.88,28.63-34.61,46.11-.73,1.46-1.88,2.71-2.83,4.06-1.02,1.44-2.67,2.44-2.73,4.55-.03,1.03-1.13,1.14-2.07,1.14-5.76-.01-11.52,0-17.28,0-13.85,0-27.71,0-41.56,0-.42,0-.84.02-1.25-.03-.93-.11-1.42-.69-1.44-1.59-.02-.97.5-1.57,1.48-1.69.41-.05.83-.02,1.25-.02,19.28,0,38.56,0,57.84,0h1.58Z"/>
        <path class="cls-1" d="M53.25,26.76c-7.97,0-15.94,0-23.91,0-.42,0-.97.13-1.22-.08-.52-.43-1.11-1-1.27-1.61-.2-.81.39-1.42,1.23-1.6.44-.1.91-.09,1.37-.09,15.86,0,31.72,0,47.58,0,.13,0,.25,0,.38,0,1.49.03,2.29.65,2.25,1.75-.04,1.04-.83,1.63-2.23,1.63-8.05,0-16.11,0-24.16,0Z"/>
        <path class="cls-1" d="M53.24,60.05c-7.93,0-15.86,0-23.79,0-.38,0-.76.04-1.12-.02-.93-.16-1.52-.68-1.52-1.68,0-1,.6-1.51,1.53-1.68.32-.06.67-.03,1-.03,15.9,0,31.8,0,47.71,0,.38,0,.76-.03,1.12.04.93.18,1.51.74,1.48,1.73-.03.92-.6,1.44-1.48,1.6-.36.07-.75.04-1.12.04-7.93,0-15.86,0-23.79,0Z"/>
        <path class="cls-1" d="M53.22,15.69c-7.97,0-15.94,0-23.92,0-.45,0-1.04.08-1.33-.15-.49-.4-1.1-1.04-1.09-1.57,0-.53.63-1.14,1.12-1.56.26-.22.8-.12,1.21-.12,15.99,0,31.97,0,47.96,0,.33,0,.68-.03,1,.03.87.18,1.44.7,1.46,1.62.02.92-.5,1.49-1.37,1.68-.4.09-.83.07-1.24.07-7.93,0-15.86,0-23.79,0Z"/>
        <path class="cls-1" d="M53.23,45.57c7.93,0,15.86,0,23.79,0,.42,0,.85-.05,1.25.05.87.2,1.52.82,1.31,1.68-.15.6-.81,1.1-1.32,1.56-.17.15-.56.07-.85.07-16.15,0-32.3,0-48.45,0-1.45,0-2.16-.58-2.16-1.67,0-1.11.71-1.68,2.15-1.69,8.1,0,16.19,0,24.29,0Z"/>
        <path class="cls-1" d="M53.23,67.76c7.8,0,15.61,0,23.41,0,.38,0,.75-.01,1.13,0,1.19.06,1.95.73,1.86,1.72-.1,1.09-.76,1.61-1.85,1.61-1.09,0-2.17,0-3.26,0-15.11,0-30.21,0-45.32,0-.33,0-.68.03-1-.03-.88-.18-1.41-.71-1.41-1.64,0-.92.49-1.49,1.4-1.63.41-.06.83-.05,1.25-.05,7.93,0,15.86,0,23.79,0Z"/>
        <path class="cls-1" d="M53.1,34.5c7.84,0,15.69,0,23.53,0,.38,0,.75,0,1.13,0,1.18.05,1.95.72,1.87,1.71-.09,1.09-.75,1.61-1.84,1.61-3.3,0-6.59,0-9.89,0-12.77,0-25.54,0-38.3,0-.33,0-.67.01-1,0-1.13-.05-1.81-.67-1.81-1.65,0-.99.67-1.64,1.78-1.66,1.42-.03,2.84-.02,4.26-.02,6.76,0,13.52,0,20.28,0Z"/>
      </g>
    </g>
  </g>
</svg>