<?xml version="1.0" encoding="UTF-8"?>
<svg id="Layer_2" data-name="Layer 2" xmlns="http://www.w3.org/2000/svg" viewBox="0 0 68.91 68.97">
  <defs>
    <style>
      .cls-1 {
        fill: #fff;
        stroke-width: 0px;
      }
    </style>
  </defs>
  <g id="Layer_1-2" data-name="Layer 1">
    <path id="shopping_cart_FILL0_wght400_GRAD0_opsz24" data-name="shopping cart FILL0 wght400 GRAD0 opsz24" class="cls-1" d="M20.69,68.97c-1.83.03-3.6-.71-4.87-2.03-1.32-1.27-2.05-3.04-2.03-4.87-.03-1.83.71-3.6,2.03-4.87,1.27-1.32,3.04-2.05,4.87-2.03,1.83-.03,3.6.71,4.87,2.03,1.32,1.27,2.05,3.04,2.03,4.87.03,1.83-.71,3.6-2.03,4.87-1.27,1.32-3.04,2.05-4.87,2.03ZM55.18,68.97c-1.83.03-3.6-.71-4.87-2.03-1.32-1.27-2.05-3.04-2.03-4.87-.03-1.83.71-3.6,2.03-4.87,1.27-1.32,3.04-2.05,4.87-2.03,1.83-.03,3.6.71,4.87,2.03,1.32,1.27,2.05,3.04,2.03,4.87.03,1.83-.71,3.6-2.03,4.87-1.27,1.32-3.04,2.05-4.87,2.03h0ZM17.76,13.79l8.28,17.24h24.14l9.48-17.24H17.76ZM14.49,6.89h50.87c1.26-.04,2.43.65,3.02,1.77.69,1.09.72,2.46.09,3.58l-12.24,22.07c-.59,1.11-1.47,2.03-2.54,2.67-1.06.63-2.26.96-3.49.95h-25.69l-3.79,6.9h41.38v6.9H20.69c-2.45.08-4.72-1.24-5.86-3.41-1.32-2.05-1.38-4.66-.17-6.77l4.66-8.45L6.9,6.9H0V0h11.21l3.28,6.89Z"/>
  </g>
</svg>